<svg version="1.0" xmlns="http://www.w3.org/2000/svg"
 width="100.000000pt" height="100.000000pt" viewBox="0 0 100.000000 100.000000"
fill="#ffffff">

<g transform="translate(0.000000,100.000000) scale(0.100000,-0.100000)">
<g fill="#000000" fill-rule="nonzero" stroke="none" stroke-width="1" 
stroke-linecap="butt" stroke-linejoin="miter" stroke-miterlimit="10" stroke-dasharray="" stroke-dashoffset="0" font-family="none" 
font-weight="none" font-size="none" text-anchor="none" style="mix-blend-mode: normal">

<path d="M241 678 c1 -20 237 -218 259 -218 21 0 260 203 260 220 0 6 -100 10
-260 10 -202 0 -260 -3 -259 -12z"/>
<path d="M240 500 l0 -112 63 49 c34 27 62 53 61 58 0 5 -28 33 -62 63 l-62
55 0 -113z"/>
<path d="M691 551 l-65 -57 65 -52 64 -52 3 55 c2 30 2 80 0 110 l-3 54 -64
-58z"/>
<path d="M324 399 c-44 -33 -80 -67 -82 -75 -3 -12 37 -14 257 -14 202 0 261
3 261 13 -1 10 -112 103 -157 130 -8 5 -24 -1 -43 -14 -37 -28 -82 -28 -120
-1 -16 12 -31 22 -33 22 -3 0 -40 -27 -83 -61z"/>
</g></g>
</svg>
